<svg width="450" height="450" viewBox="0 0 450 450" fill="none" xmlns="http://www.w3.org/2000/svg">
<path d="M396.363 335.552H391.239V354.108H396.363V335.552Z" fill="#F2F2F2"/>
<path d="M422.339 349.827H365.267C361.023 349.827 357.584 345.632 357.584 340.458C357.584 335.283 361.023 331.088 365.267 331.088H422.339C426.582 331.088 430.022 335.283 430.022 340.458C430.022 345.632 426.582 349.827 422.339 349.827Z" fill="#F2F2F2"/>
<path d="M426.73 349.825C430.164 349.825 432.949 346.429 432.949 342.24V252.114C432.949 247.925 430.164 244.529 426.73 244.529C423.295 244.529 420.51 247.925 420.51 252.114C401.62 269.744 409.298 304.831 420.51 342.24C420.51 346.429 423.295 349.825 426.73 349.825V349.825Z" fill="#F2F2F2"/>
<path d="M419.105 310.211C418.261 314.826 416.669 318.47 414.672 321.341C410.604 327.213 404.839 329.877 400.293 331.085C396.208 332.174 393.107 332.085 393.107 332.085L373.904 334.016L358.729 335.54L343.481 337.075C344.349 341.531 345.178 346.65 345.965 352.126C346.055 352.78 346.152 353.443 346.249 354.107H315.282L314.762 352.126L311.579 340.095L305.124 322.896C303.947 320.093 303.354 317.034 303.354 313.954C303.354 311.905 303.622 309.865 304.15 307.884C304.158 307.855 304.158 307.825 304.166 307.795C305.409 303.221 308.478 299.715 312.278 298.319L316.865 296.626C329.873 292.922 348.101 287.15 362.001 282.674C373.612 278.931 382.194 276.079 382.194 276.079L382.219 275.881L384.622 255.84L408.583 253.275L416.369 252.433C416.369 252.433 416.199 253.424 416.264 256.978C416.264 257.196 416.264 257.424 416.272 257.652C416.288 258.345 416.312 259.137 416.345 260.018C416.353 260.315 416.369 260.622 416.385 260.939C416.41 261.553 416.442 262.207 416.483 262.91C416.483 262.959 416.483 263.009 416.491 263.058C416.532 263.94 416.588 264.9 416.661 265.93C416.678 266.356 416.71 266.791 416.743 267.237C416.897 269.485 417.092 272.059 417.343 274.99C417.36 275.287 417.384 275.584 417.416 275.881C417.449 276.347 417.49 276.812 417.53 277.287C417.611 278.119 417.684 278.971 417.766 279.862C417.774 279.951 417.782 280.03 417.79 280.119C417.863 280.902 417.944 281.704 418.017 282.535C418.107 283.436 418.196 284.357 418.293 285.298C418.35 285.932 418.415 286.585 418.488 287.259C418.521 287.575 418.553 287.902 418.586 288.229C418.626 288.576 418.659 288.932 418.699 289.288C418.764 289.922 418.829 290.576 418.902 291.239C419.057 292.715 419.227 294.239 419.398 295.824C420.023 301.438 419.844 306.201 419.105 310.211L419.105 310.211Z" fill="#2F2E41"/>
<path d="M419.105 310.211L412.829 313.519L379.466 331.085L373.904 334.016L360.247 341.204C360.637 343.71 361.051 346.185 361.498 348.621C361.709 349.799 361.92 350.968 362.147 352.126C362.277 352.79 362.399 353.443 362.537 354.107H334.898L334.687 352.126L333.883 344.373C332.284 342.63 331.342 339.293 330.774 335.748C330.205 332.213 330.002 328.441 329.864 325.827C329.864 325.797 329.864 325.757 329.856 325.728C329.629 320.895 337.367 317.687 340.46 314.677L344.26 313.142C352.112 306.498 363.779 296.438 375.073 286.665C379.352 282.961 383.583 279.297 387.521 275.881C399.765 265.247 409.297 256.939 409.297 256.939L408.583 253.275L416.369 252.433C416.369 252.433 416.199 253.424 416.264 256.978C416.264 257.196 416.264 257.424 416.272 257.652C416.288 258.355 416.312 259.137 416.345 260.018C416.353 260.315 416.369 260.622 416.385 260.939C416.41 261.553 416.442 262.207 416.483 262.91C416.483 262.959 416.483 263.009 416.491 263.058C416.532 263.94 416.588 264.9 416.661 265.93C416.678 266.356 416.71 266.791 416.743 267.237C416.889 269.485 417.084 272.049 417.343 274.99C417.36 275.287 417.384 275.584 417.416 275.881C417.449 276.347 417.49 276.812 417.53 277.287C417.611 278.119 417.684 278.981 417.766 279.862C417.774 279.951 417.782 280.03 417.79 280.119C417.863 280.902 417.944 281.704 418.017 282.535C418.107 283.436 418.196 284.357 418.293 285.298C418.358 285.942 418.423 286.595 418.488 287.259C418.521 287.575 418.553 287.902 418.586 288.229C418.626 288.576 418.659 288.932 418.699 289.288C418.764 289.922 418.829 290.576 418.902 291.239C419.057 292.715 419.227 294.239 419.398 295.824C420.023 301.438 419.844 306.201 419.105 310.211V310.211Z" fill="#2F2E41"/>
<path d="M424.102 262.607C425.377 269.251 424.866 273.806 424.362 280.302C424.175 282.698 424.817 286.144 422.909 287.758C421.277 289.114 362.565 288.471 362.021 282.926C361.404 276.658 362.606 270.083 365.114 264.429C369.653 254.19 372.251 241.654 373.583 232.753C376.4 214.048 370.051 203.888 372.422 185.233C372.828 182.055 372.909 179.044 372.812 176.163C372.487 166.152 369.954 157.656 370.757 149.032C371.09 145.487 371.984 141.922 373.827 138.219C374.371 137.12 374.996 136.011 375.718 134.892C379.908 128.376 381.004 123.465 388.279 123.475C389.392 123.475 390.577 123.386 391.779 123.316C393.703 123.188 395.668 123.099 397.406 123.475C401.579 124.376 400.653 127.574 403.349 131.08L404.388 132.347C406.986 134.842 409.236 136.793 411.509 139.803C416.072 145.843 421.488 152.636 424.175 160.181C425.994 165.301 424.89 173.123 424.841 178.708C424.784 185.887 422.966 191.917 421.447 198.759C420.124 204.7 419.775 210.939 418.873 217.008C417.712 224.861 416.657 232.604 416.121 240.516C415.707 246.724 422.884 236.456 422.901 242.674C422.917 249.12 422.901 256.369 424.102 262.607L424.102 262.607Z" fill="#3F3D56"/>
<path d="M322.4 143.015L340.481 146.962L340.073 159.873L321.079 154.87C320.561 155.224 319.993 155.493 319.383 155.656C316.066 156.54 312.789 153.977 312.064 149.932C311.339 145.887 313.441 141.89 316.758 141.006C318.873 140.442 320.969 141.284 322.4 143.015H322.4V143.015Z" fill="#FFB6B6"/>
<path d="M394.815 173.321C394.02 175.302 392.786 177.015 391.202 178.262C388.864 180.104 386.119 180.609 383.578 179.936C383.27 179.857 382.222 179.5 380.615 178.926C380.338 178.827 380.046 178.728 379.738 178.619C377.911 177.975 375.532 177.124 372.812 176.163C370.116 175.203 367.063 174.123 363.905 173.014L363.888 173.024C362.93 172.668 361.94 172.321 360.957 171.975H360.941C353.593 169.43 345.904 166.836 340.301 165.172C340.042 165.083 338.694 166.657 338.442 166.578C338.052 166.459 337.979 164.647 337.614 164.538C336.826 164.301 335.795 165.796 335.146 165.598C332.783 164.895 331.841 158.766 331.841 158.766L331.946 157.736L333.132 145.358L333.148 145.14L339.83 142.576L342.055 145.2L345.141 143.635L348.015 146.259L353.885 146.972L356.419 147.289L356.589 147.299L370.757 149.032L374.931 149.547C374.598 147.487 374.338 145.447 374.151 143.437C374.103 142.873 374.054 142.318 374.022 141.764L374.013 141.754C373.924 140.566 373.867 139.397 373.827 138.219C374.371 137.12 374.996 136.011 375.718 134.892C379.908 128.377 381.004 123.465 388.279 123.475C389.392 123.475 390.577 123.386 391.779 123.317L393.654 143.576L395.717 165.855L395.782 166.578C395.993 168.955 395.644 171.282 394.815 173.321L394.815 173.321Z" fill="#3F3D56"/>
<path d="M359.704 136.592C358.778 135.78 357.593 135.631 356.545 136.196L324.993 153.158C322.119 154.702 318.871 154.98 315.851 153.94L315.388 153.781C316.702 139.545 313.349 124.225 306.765 108.153C305.912 108.015 305.06 108.292 304.37 108.946C303.558 109.718 303.103 110.886 303.136 112.154L304.126 156.772L304.459 171.585C297.263 182.098 294.661 191.824 305.076 199.32C305.109 200.717 305.734 201.964 306.741 202.638C307.747 203.321 308.941 203.301 309.932 202.588L310.573 202.123L319.236 216.926C319.813 216.649 320.414 216.51 321.023 216.51C321.859 216.51 322.695 216.768 323.442 217.292L339.202 228.353L349.936 235.888C350.894 236.562 352.055 236.591 353.038 235.967C354.02 235.334 354.653 234.155 354.751 232.809L355.051 228.353L356.05 213.698L357.69 189.517L358.47 177.982L358.591 176.259L361.043 140.107C361.141 138.711 360.637 137.394 359.704 136.592V136.592V136.592Z" fill="#F2F2F2"/>
<path d="M362.14 141.543C361.214 140.731 360.029 140.583 358.981 141.147C347.567 151.864 336.53 160.454 327.429 158.109C324.555 159.654 321.307 159.931 318.286 158.891L317.824 158.733C319.138 144.497 315.785 129.176 309.201 113.105C308.348 112.966 307.496 113.243 306.806 113.897C305.994 114.669 305.539 115.838 305.571 117.105L306.562 161.723L306.895 176.537C299.699 187.049 297.097 196.775 307.512 204.272C307.544 205.668 308.17 206.916 309.176 207.589C310.183 208.272 311.377 208.252 312.367 207.539L313.009 207.074L321.672 221.877C322.249 221.6 322.85 221.462 323.459 221.462C324.295 221.462 325.131 221.719 325.878 222.244L341.638 233.304L352.372 240.84C353.33 241.513 354.491 241.543 355.474 240.919C356.456 240.285 357.089 239.107 357.187 237.76L357.487 233.304L358.486 218.649L360.126 194.469L360.906 182.933L361.027 181.21L363.479 145.058C363.577 143.662 363.073 142.345 362.14 141.543V141.543V141.543Z" fill="#E6E6E6"/>
<path d="M356.29 161.624L332.075 168.806L332.421 170.54L356.636 163.358L356.29 161.624Z" fill="white"/>
<path d="M356.29 175.008L332.075 182.19L332.421 183.924L356.636 176.742L356.29 175.008Z" fill="white"/>
<path d="M331.914 192.533L331.883 194.317L356.798 194.958L356.829 193.174L331.914 192.533Z" fill="white"/>
<path d="M331.959 205.356L331.874 207.137L356.753 208.901L356.838 207.12L331.959 205.356Z" fill="white"/>
<path d="M330.705 218.117L330.473 219.879L355.079 224.695L355.311 222.933L330.705 218.117Z" fill="white"/>
<path d="M256.242 233.305H443.878C445.492 233.305 446.8 237.824 446.8 243.398V265.791C446.8 271.365 445.492 275.883 443.878 275.883H283.848C282.235 275.883 280.927 271.365 280.927 265.791L253.321 243.398C253.321 237.824 254.629 233.305 256.242 233.305H256.242V233.305Z" fill="#F2F2F2"/>
<path d="M391.004 90.3093C390.874 90.032 390.736 89.7647 390.59 89.5072C390.452 89.2399 390.298 88.9824 390.144 88.7349C390.071 88.6061 389.998 88.4873 389.916 88.3784C389.186 87.2397 388.374 86.3188 387.545 85.7643C387.489 85.7247 387.432 85.6851 387.375 85.6554C387.245 85.5663 387.115 85.497 386.977 85.4376C386.725 85.3187 386.474 85.2296 386.214 85.19C386.092 85.1702 385.97 85.1603 385.848 85.1603C385.759 85.1603 385.67 85.1702 385.581 85.1801C385.532 85.19 385.475 85.1999 385.418 85.2098C385.353 85.2197 385.28 85.2395 385.215 85.2593C385.142 85.2791 385.069 85.3088 385.004 85.3385C384.939 85.3682 384.866 85.3979 384.801 85.4376C384.728 85.4772 384.655 85.5167 384.59 85.5663C384.517 85.6158 384.452 85.6653 384.387 85.7148C384.314 85.7742 384.249 85.8336 384.184 85.893C386.669 87.6061 389.104 89.428 391.475 91.3391C391.329 90.9826 391.175 90.6459 391.004 90.3093V90.3093V90.3093Z" fill="#3F3D56"/>
<path d="M391.004 90.3093C390.874 90.032 390.736 89.7647 390.59 89.5072C390.452 89.2399 390.298 88.9824 390.144 88.7349C390.071 88.6061 389.998 88.4873 389.916 88.3784C389.186 87.2397 388.374 86.3188 387.545 85.7643C387.489 85.7247 387.432 85.6851 387.375 85.6554C387.245 85.5663 387.115 85.497 386.977 85.4376C386.725 85.3187 386.474 85.2296 386.214 85.19C386.092 85.1702 385.97 85.1603 385.848 85.1603C385.759 85.1603 385.67 85.1702 385.581 85.1801C385.532 85.19 385.475 85.1999 385.418 85.2098C385.353 85.2197 385.28 85.2395 385.215 85.2593C385.142 85.2791 385.069 85.3088 385.004 85.3385C384.939 85.3682 384.866 85.3979 384.801 85.4376C384.728 85.4772 384.655 85.5167 384.59 85.5663C384.517 85.6158 384.452 85.6653 384.387 85.7148C384.314 85.7742 384.249 85.8336 384.184 85.893C386.669 87.6061 389.104 89.428 391.475 91.3391C391.329 90.9826 391.175 90.6459 391.004 90.3093V90.3093V90.3093Z" fill="#3F3D56"/>
<path d="M431.577 63.978H168.661V65.9584H321.973C337.538 65.9584 352.437 69.3845 366.207 75.6624H366.215C368.107 76.5238 369.967 77.4348 371.81 78.4052C376.064 80.6232 380.189 83.1284 384.184 85.891C386.668 87.6041 389.104 89.426 391.475 91.3371C396.542 95.4068 401.348 99.9122 405.863 104.814L405.871 104.824C406.074 105.032 406.269 105.239 406.464 105.467C432.194 133.678 448.376 174.593 448.376 220.112V331.638C448.376 342.708 441.182 351.719 432.949 341.292C432.763 341.054 432.576 340.817 432.389 340.559H275.026V354.105H431.577C441.734 354.105 450 344.025 450 331.638V86.4456C450 74.0582 441.734 63.978 431.577 63.978H431.577V63.978Z" fill="#3F3D56"/>
<path d="M391.004 90.3093C390.874 90.032 390.736 89.7647 390.59 89.5072C390.452 89.2399 390.298 88.9824 390.144 88.7349C390.071 88.6061 389.998 88.4873 389.916 88.3784C389.186 87.2397 388.374 86.3188 387.545 85.7643C387.489 85.7247 387.432 85.6851 387.375 85.6554C387.245 85.5663 387.115 85.497 386.977 85.4376C386.725 85.3187 386.474 85.2296 386.214 85.19C386.092 85.1702 385.97 85.1603 385.848 85.1603C385.759 85.1603 385.67 85.1702 385.581 85.1801C385.532 85.19 385.475 85.1999 385.418 85.2098C385.353 85.2197 385.28 85.2395 385.215 85.2593C385.142 85.2791 385.069 85.3088 385.004 85.3385C384.939 85.3682 384.866 85.3979 384.801 85.4376C384.728 85.4772 384.655 85.5167 384.59 85.5663C384.517 85.6158 384.452 85.6653 384.387 85.7148C384.314 85.7742 384.249 85.8336 384.184 85.893C386.669 87.6061 389.104 89.428 391.475 91.3391C391.329 90.9826 391.175 90.6459 391.004 90.3093V90.3093V90.3093Z" fill="#3F3D56"/>
<path d="M391.004 90.3093C390.874 90.032 390.736 89.7647 390.59 89.5072C390.452 89.2399 390.298 88.9824 390.144 88.7349C390.071 88.6061 389.998 88.4873 389.916 88.3784C389.186 87.2397 388.374 86.3188 387.545 85.7643C387.489 85.7247 387.432 85.6851 387.375 85.6554C387.245 85.5663 387.115 85.497 386.977 85.4376C386.725 85.3187 386.474 85.2296 386.214 85.19C386.092 85.1702 385.97 85.1603 385.848 85.1603C385.759 85.1603 385.67 85.1702 385.581 85.1801C385.532 85.19 385.475 85.1999 385.418 85.2098C385.353 85.2197 385.28 85.2395 385.215 85.2593C385.142 85.2791 385.069 85.3088 385.004 85.3385C384.939 85.3682 384.866 85.3979 384.801 85.4376C384.728 85.4772 384.655 85.5167 384.59 85.5663C384.517 85.6158 384.452 85.6653 384.387 85.7148C384.314 85.7742 384.249 85.8336 384.184 85.893C386.669 87.6061 389.104 89.428 391.475 91.3391C391.329 90.9826 391.175 90.6459 391.004 90.3093V90.3093V90.3093Z" fill="#3F3D56"/>
<path d="M391.004 90.3093C390.874 90.032 390.736 89.7647 390.59 89.5072C390.452 89.2399 390.298 88.9824 390.144 88.7349C390.071 88.6061 389.998 88.4873 389.916 88.3784C389.186 87.2397 388.374 86.3188 387.545 85.7643C387.489 85.7247 387.432 85.6851 387.375 85.6554C387.245 85.5663 387.115 85.497 386.977 85.4376C386.725 85.3187 386.474 85.2296 386.214 85.19C386.092 85.1702 385.97 85.1603 385.848 85.1603C385.759 85.1603 385.67 85.1702 385.581 85.1801C385.532 85.19 385.475 85.1999 385.418 85.2098C385.353 85.2197 385.28 85.2395 385.215 85.2593C385.142 85.2791 385.069 85.3088 385.004 85.3385C384.939 85.3682 384.866 85.3979 384.801 85.4376C384.728 85.4772 384.655 85.5167 384.59 85.5663C384.517 85.6158 384.452 85.6653 384.387 85.7148C384.314 85.7742 384.249 85.8336 384.184 85.893C386.669 87.6061 389.104 89.428 391.475 91.3391C391.329 90.9826 391.175 90.6459 391.004 90.3093V90.3093V90.3093Z" fill="#3F3D56"/>
<path d="M385.082 118.685C385.556 118.755 386.029 118.807 386.5 118.833C387.964 118.931 389.41 118.829 390.804 118.541C395.04 117.713 398.888 115.267 401.857 111.679C404.996 107.893 407.144 102.84 407.725 97.0879C409.085 83.5098 401.157 71.1411 390.023 69.482C379.049 67.8371 369.045 77.1977 367.449 90.4641C367.423 90.6694 367.398 90.8662 367.38 91.0706C366.02 104.657 373.94 117.018 385.082 118.685H385.082V118.685Z" fill="#FFB6B6"/>
<path d="M362.87 89.5542C365.754 91.2935 370.467 85.8253 372.272 88.9714C372.565 88.2915 372.889 87.634 373.209 87.0121C373.498 86.4557 373.912 85.268 374.391 85.0646C373.785 86.8487 373.919 89.265 374.548 91.3352C377.393 92.6316 381.117 89.762 383.75 86.3677C387.885 81.0456 394.636 94.6932 393.04 101.756C395.071 98.7307 399.48 100.437 400.974 103.896C402.467 107.347 399.944 110.112 399.404 113.961L403.477 113.33C406.047 110.278 405.867 105.135 407.983 101.598C411.518 95.6776 412.887 89.6373 410.23 83.5276C407.873 78.1253 407.653 71.1337 403.329 68.0192C405.218 66.8927 398.5 68.6525 400.295 64.9816C402.097 61.3184 392.49 60.8738 391.863 62.8363C389.118 58.8294 386.348 56.1875 382.971 59.3982C379.655 62.557 379.998 65.8773 376.103 65.5798C374.275 65.4416 374.476 69.5978 373.389 71.4098C372.309 73.2121 368.109 74.3691 367.905 74.1762C366.796 73.1179 363.022 82.1271 363.022 82.1271C363.022 82.1271 359.962 87.7916 362.87 89.5542H362.87V89.5542Z" fill="#2F2E41"/>
<path d="M311.904 3.46887H270.097C266.403 3.46887 263.399 7.14251 263.399 11.6479V62.633C263.399 63.0885 263.431 63.5439 263.488 63.9796C263.586 64.6728 263.748 65.3362 263.975 65.96C265.023 68.8118 267.377 70.8021 270.097 70.8021H311.904C314.625 70.8021 316.979 68.8118 318.027 65.96C318.262 65.3362 318.424 64.6728 318.514 63.9796C318.579 63.544 318.611 63.0885 318.611 62.633V11.6479C318.611 7.14252 315.599 3.46888 311.905 3.46888L311.904 3.46887ZM317.142 65.96C316.159 68.2672 314.186 69.8416 311.904 69.8416H270.097C267.816 69.8416 265.843 68.2672 264.86 65.96C264.592 65.3461 264.398 64.6827 264.292 63.9796C264.219 63.544 264.187 63.0885 264.187 62.633V11.6479C264.187 11.539 264.187 11.4399 264.203 11.3409V11.331C264.333 7.48907 266.923 4.4294 270.097 4.4294H291.176C298.93 4.4294 305.912 8.47926 310.784 14.9354C310.808 14.9749 310.833 15.0047 310.857 15.0344L310.898 15.0839C314.21 19.52 316.524 25.1046 317.41 31.2736C317.442 31.5112 317.483 31.7389 317.507 31.9766C317.515 32.0261 317.515 32.0756 317.523 32.1152C317.718 33.6896 317.815 35.2937 317.815 36.9275V62.633C317.815 63.0885 317.783 63.544 317.71 63.9797C317.604 64.6827 317.41 65.3461 317.142 65.96V65.96H317.142Z" fill="#E6E6E6"/>
<path d="M317.868 37.1397C317.868 19.0437 304.576 3.21447 289.917 0.412203C271.361 -3.13485 254.302 16.808 256.757 37.2464C258.907 55.1513 284.108 81.1207 291.001 65.0957C298.888 46.7587 317.868 55.2356 317.868 37.1397V37.1397Z" fill="#E97558"/>
<path d="M296.567 22.7874H283.072C282.731 22.7874 282.455 23.124 282.455 23.5399C282.455 23.9558 282.731 24.2925 283.072 24.2925H296.567C296.908 24.2925 297.184 23.9558 297.184 23.5399C297.184 23.124 296.908 22.7874 296.567 22.7874Z" fill="white"/>
<path d="M296.567 38.8391H283.072C282.731 38.8391 282.455 39.1757 282.455 39.5818C282.455 39.9976 282.731 40.3442 283.072 40.3442H296.567C296.908 40.3442 297.184 39.9976 297.184 39.5818C297.184 39.1757 296.908 38.8391 296.567 38.8391Z" fill="white"/>
<path d="M303.809 30.8186H275.83C275.489 30.8186 275.213 31.1553 275.213 31.5712C275.213 31.9871 275.489 32.3237 275.83 32.3237H303.809C304.151 32.3237 304.427 31.9871 304.427 31.5712C304.427 31.1553 304.151 30.8186 303.809 30.8186Z" fill="white"/>
<path d="M354.623 177.421L371.155 187.183L367.9 199.478L350.723 188.398C350.146 188.568 349.539 188.641 348.916 188.596C345.526 188.353 342.94 184.806 343.139 180.672C343.338 176.538 346.247 173.384 349.636 173.626C351.798 173.781 353.629 175.283 354.623 177.421V177.421V177.421Z" fill="#FFB6B6"/>
<path d="M425.122 165.317V165.308C423.563 162.327 421.038 160.119 417.977 159.416L415.671 158.881C409.988 171.813 404.734 185.022 403.752 201.044L379.653 189.508L378.565 188.993L376.381 185.517L373.06 186.003L372.476 184.775V184.765L371.501 182.755L364.502 183.022L364.437 183.21L364.429 183.22L361.019 193.34L361.011 193.35L360.548 194.736L360.223 195.697C360.223 195.697 360.02 198.43 360.516 200.707V200.727C360.759 201.866 361.181 202.885 361.888 203.371C362.472 203.767 363.796 202.668 364.502 203.153C364.827 203.381 364.494 205.163 364.843 205.4C365.071 205.559 366.711 204.49 366.946 204.648C368.814 205.925 370.925 207.43 373.174 209.054C374.319 209.886 375.496 210.738 376.698 211.629C389.218 220.808 404.101 232.354 405.335 233.146C405.424 233.205 405.514 233.255 405.603 233.304C407.844 234.661 410.491 234.997 413.049 234.047C413.584 233.849 414.096 233.601 414.575 233.304C415.46 232.779 416.264 232.096 416.962 231.294C418.57 229.492 419.666 227.056 420.048 224.313L426.689 174.586C427.136 171.239 426.511 167.971 425.122 165.317V165.317Z" fill="#3F3D56"/>
<path d="M300.391 211.381C299.628 207.598 297.346 204.796 294.683 203.944C293.62 203.588 292.491 203.548 291.371 203.885C290.169 204.241 289.089 204.984 288.22 206.044C286.004 204.776 282.918 204.588 279.492 204.588H273.808C267.085 204.588 261.629 211.519 261.629 219.441C259.875 226.412 262.043 231.194 266.03 233.304C268.198 234.452 270.901 234.809 273.808 234.294H279.492C281.465 234.749 283.348 234.353 285.029 233.304C287.993 231.462 290.323 227.6 291.354 222.857C292.093 223.174 292.864 223.352 293.652 223.352C294.172 223.352 294.699 223.273 295.219 223.124C297.135 222.55 298.727 220.995 299.701 218.758C300.659 216.549 300.903 213.935 300.391 211.381V211.381ZM294.204 216.837C293.644 218.134 292.824 219.124 291.833 219.728C291.801 220.124 291.752 220.52 291.703 220.906C292.069 221.085 291.898 221.075 291.59 220.986C291.054 220.827 290.104 220.401 290.778 220.203C291.143 220.094 291.5 219.936 291.833 219.728C292.012 217.728 291.979 215.629 291.671 213.5C291.671 210.47 290.924 208.469 289.649 207.143C290.258 206.499 290.965 206.044 291.752 205.806C292.15 205.687 292.548 205.628 292.938 205.628C293.433 205.628 293.904 205.667 294.342 205.766C296.234 206.172 297.566 207.529 298.166 210.529C298.581 212.609 294.976 215.064 294.204 216.837V216.837Z" fill="#F2F2F2"/>
<path d="M194.867 230.011C194.867 222.089 189.411 215.158 182.688 215.158H177.004C173.772 215.158 170.841 215.326 168.665 216.406C168.527 216.475 168.405 216.544 168.276 216.613C167.399 215.554 166.327 214.811 165.125 214.455C162.957 213.811 160.749 214.554 159.028 216.257C157.647 217.614 156.575 219.584 156.105 221.951C155.593 224.505 155.837 227.119 156.795 229.328C157.29 230.466 157.94 231.417 158.719 232.16C159.466 232.882 160.335 233.407 161.277 233.694C161.796 233.843 162.324 233.922 162.844 233.922C163.631 233.922 164.403 233.744 165.141 233.427C165.815 236.546 167.058 239.279 168.665 241.309C170.898 244.131 173.837 245.596 177.004 244.864H182.688C190.953 246.319 197.571 240.764 194.867 230.011L194.867 230.011ZM164.825 224.07C164.516 226.199 164.484 228.298 164.662 230.298C164.995 230.506 165.353 230.664 165.718 230.773C166.782 231.09 163.802 231.952 164.792 231.476C164.744 231.09 164.695 230.694 164.662 230.298C163.98 229.882 163.388 229.288 162.901 228.535C162.673 228.189 162.47 227.813 162.292 227.407C161.52 225.634 157.915 223.178 158.329 221.099C158.743 219.049 159.498 217.762 160.538 217.029C160.538 217.019 160.546 217.019 160.546 217.019C161.374 216.435 162.381 216.198 163.55 216.198C163.948 216.198 164.346 216.257 164.744 216.376C165.531 216.613 166.238 217.069 166.847 217.713C165.572 219.039 164.825 221.04 164.825 224.07H164.825Z" fill="#F2F2F2"/>
<path d="M17.0376 320.779H204.673C206.287 320.779 207.595 325.298 207.595 330.872L183.237 353.265C183.237 358.839 181.929 363.358 180.315 363.358H17.0376C15.424 363.358 14.1159 358.839 14.1159 353.265V330.872C14.1159 325.298 15.424 320.779 17.0376 320.779Z" fill="#F2F2F2"/>
<path d="M94.5997 220.566L97.9057 247.384L85.6069 251.825L82.9389 223.319C82.4051 222.733 81.9313 222.043 81.5417 221.253C79.4226 216.957 80.5605 211.38 84.0831 208.796C87.6057 206.211 92.1792 207.599 94.2982 211.895C95.6496 214.635 95.6713 217.893 94.5997 220.566H94.5997Z" fill="#FFB6B6"/>
<path d="M101.42 258.575C102.296 270.685 96.3937 265.388 91.7493 277.211C89.9874 281.696 84.7585 281.033 82.8179 285.132C79.8624 291.371 82.5825 319.383 77.3373 322.829C72.0678 326.295 69.5913 316.274 65.426 311.115C61.3501 306.065 56.5758 308.046 53.0926 302.411C49.585 296.757 45.6146 291.717 42.1069 286.093C42.0339 285.984 41.9689 285.865 41.904 285.756C40.2963 270.329 35.0593 252.159 37.2515 243.96C40.1502 242.673 43.2761 241.811 45.7201 241.841C50.2183 241.91 48.3183 244.901 52.1832 247.258C55.431 249.238 59.442 259.595 62.5761 261.902C64.809 263.536 70.3221 276.518 73.2045 275.399C77.9219 273.567 82.5662 247.079 81.462 242.227C80.5282 238.177 75.8677 233.108 75.7378 229.028C75.7296 228.88 75.7296 228.721 75.7378 228.573C80.4227 230.622 89.1267 225.394 93.9253 227.285C97.3518 228.642 101.395 233.741 101.631 238.088C101.874 242.544 101.095 254.11 101.42 258.575V258.575Z" fill="#E97558"/>
<path d="M156.641 212.925C155.788 211.727 154.513 211.172 153.23 211.449L115.564 219.658C112.162 220.411 108.614 219.678 105.602 217.608L100.016 213.776L89.5577 206.597L87.5278 205.211L79.0186 199.369L76.3473 197.537C75.3242 196.834 74.1144 196.765 73.0426 197.359C71.9709 197.943 71.2158 199.092 70.9722 200.488L68.3334 215.529L68.1385 216.608L66.6526 225.094L62.9339 246.235L62.3493 249.592L62.0895 251.047L60.1895 261.89L59.8323 263.89L54.7901 292.616L54.3516 295.101C54.1081 296.497 54.4004 297.903 55.1636 298.953C55.2448 299.082 55.3422 299.2 55.4478 299.319C56.414 300.408 57.7375 300.775 58.9879 300.309L60.0434 299.913L67.9924 296.972L86.2043 290.239L90.1016 288.793L94.8921 287.021C95.3955 286.833 95.9071 286.744 96.4186 286.744C97.7583 286.744 99.0736 287.358 100.064 288.516L123.611 315.826L124.65 317.034C125.559 318.093 126.834 318.499 128.052 318.123C129.099 317.806 129.952 316.974 130.423 315.826C130.512 315.628 130.585 315.42 130.642 315.202L137.227 291.041L138.356 286.902L142.026 273.436L142.318 272.366C158.423 284.91 155.812 245.305 157.347 217.252C157.761 215.747 157.493 214.123 156.641 212.925L156.641 212.925Z" fill="#F2F2F2"/>
<path d="M151.769 217.876C150.916 216.678 149.641 216.123 148.359 216.401L110.692 224.609C107.29 225.362 103.742 224.629 100.73 222.56L95.1437 218.728L84.6858 211.549L82.656 210.162L74.1468 204.32L71.4755 202.488C70.4524 201.785 69.2426 201.716 68.1708 202.31C67.0991 202.894 66.344 204.043 66.1004 205.439L63.4616 220.48L63.2667 221.56L61.7808 230.046L58.0621 251.186L57.4775 254.543L57.2177 255.998L55.3177 266.841L54.9605 268.841L49.9183 297.567L49.4798 300.052C49.2363 301.448 49.5286 302.854 50.2918 303.904C50.373 304.033 50.4704 304.152 50.576 304.27C51.5422 305.36 52.8657 305.726 54.1161 305.261L55.1716 304.865L63.1206 301.924L81.3325 295.19L85.2298 293.745L90.0203 291.972C90.5237 291.784 91.0353 291.695 91.5468 291.695C92.8865 291.695 94.2018 292.309 95.1924 293.467L118.739 320.777L119.778 321.985C120.687 323.045 121.962 323.45 123.18 323.074C124.228 322.757 125.08 321.926 125.551 320.777C125.64 320.579 125.713 320.371 125.77 320.153L132.355 295.992L133.484 291.853L137.154 278.387L137.446 277.317C153.551 289.861 150.94 250.257 152.475 222.203C152.889 220.698 152.621 219.074 151.769 217.876L151.769 217.876Z" fill="#E6E6E6"/>
<path d="M45.4633 304.651L46.2345 344.465L92.5053 342.911L83.1547 298.845L45.4633 304.651Z" fill="#FFB6B6"/>
<path d="M100.291 441.583C100.851 438.355 99.0487 440.969 97.8308 439.603L97.7334 439.484C96.4099 437.692 94.7454 436.89 94.7697 434.662C94.7941 432.434 91.6113 434.424 89.825 432.246C89.4434 431.78 88.3554 430.879 86.8695 429.75C82.2495 426.245 73.8297 420.522 71.3045 418.809C70.8336 418.492 70.5656 418.313 70.5656 418.313C70.5656 418.313 70.5576 418.482 70.5332 418.809C70.3952 420.878 69.8268 429.265 69.1367 439.603C69.096 440.256 69.0554 440.92 69.0067 441.583H39.0947C39.1271 440.91 39.1434 440.246 39.1515 439.603C39.2002 436.513 38.9891 433.632 38.4045 431.226C37.349 426.898 36.4071 422.779 35.6682 418.809C32.9644 404.342 32.997 391.806 40.5156 378.151C41.904 375.636 42.1719 367.625 42.1719 367.625C42.1719 367.625 44.7296 370.715 45.3873 371.487C45.2249 371.279 44.9001 370.883 44.3642 370.23C41.3275 366.526 41.4249 365.407 42.9839 363.358C43.26 363.001 43.5766 362.615 43.9338 362.179C46.3128 359.278 43.9338 362.179 42.7403 360.476C41.5548 358.763 44.5266 354.189 44.5266 354.189L43.398 347.297L42.7403 343.296L46.1911 342.564L55.431 340.593L90.2147 333.187L90.8724 335.236L96.7671 353.525C98.2205 354.545 99.7389 358.555 101.103 363.358C103.652 372.319 105.65 384.013 105.65 384.013L144.087 439.603L144.461 440.147C144.786 440.613 145.086 441.098 145.37 441.583H100.291H100.291Z" fill="#2F2E41"/>
<path d="M49.5284 423.761H43.8448V441.584H49.5284V423.761Z" fill="#E6E6E6"/>
<path d="M15.0207 418.809H78.3524C83.0609 418.809 86.8778 423.464 86.8778 429.206C86.8778 434.948 83.0609 439.603 78.3524 439.603H15.0207C10.3122 439.603 6.49527 434.948 6.49527 429.206C6.49527 423.464 10.3122 418.809 15.0207 418.809Z" fill="#F2F2F2"/>
<path d="M10.1487 439.602H10.1487C6.33708 439.602 3.24716 435.833 3.24716 431.185V331.175C3.24716 326.527 6.33708 322.759 10.1487 322.759H10.1487C13.9603 322.759 17.0502 326.527 17.0502 331.175C38.0118 350.738 29.4921 389.673 17.0502 431.185C17.0502 435.833 13.9603 439.602 10.1487 439.602V439.602Z" fill="#F2F2F2"/>
<path d="M93.3732 329.692C92.035 341.66 82.6636 331.118 73.2369 329.127C64.4679 327.286 54.0425 345.941 44.6565 347.515C38.5913 348.535 43.3736 342.396 45.4684 315.829C45.7364 312.413 42.3181 289.767 41.904 285.757C40.2963 270.33 35.0593 252.16 37.2515 243.961C37.625 242.535 38.2259 241.416 39.1109 240.663C43.2761 237.109 45.1355 234.247 47.9367 229.138C50.3076 224.8 52.0289 221.454 56.4459 221.107C60.6112 220.78 65.3286 221.889 69.3477 222.959C73.7403 224.137 68.755 223.721 69.8268 226.712C70.3464 228.177 71.2395 233.583 72.2626 235.623C75.368 234.536 78.7085 235.754 80.8165 238.74C83.269 242.214 85.4782 245.403 86.9994 250.357C89.2891 257.764 83.5162 270.944 86.0657 278.202C88.3635 284.757 82.7448 298.728 85.2537 303.947C88.4365 310.591 95.809 307.907 93.3732 329.692V329.692H93.3732Z" fill="#E97558"/>
<path d="M112.174 232.594L111.969 234.558L139.401 238.822L139.606 236.858L112.174 232.594Z" fill="white"/>
<path d="M110.677 242.327L110.472 244.291L137.904 248.555L138.109 246.591L110.677 242.327Z" fill="white"/>
<path d="M109.865 250.248L109.66 252.212L137.092 256.476L137.297 254.512L109.865 250.248Z" fill="white"/>
<path d="M69.9512 222.067C79.2858 222.067 86.853 212.839 86.853 201.455C86.853 190.071 79.2858 180.843 69.9512 180.843C60.6166 180.843 53.0494 190.071 53.0494 201.455C53.0494 212.839 60.6166 222.067 69.9512 222.067Z" fill="#FFB6B6"/>
<path d="M151.052 222.112L132.723 232.26L136.015 245.838L155.081 234.268C155.709 234.473 156.372 234.572 157.055 234.544C160.774 234.391 163.687 230.59 163.561 226.054C163.436 221.519 160.319 217.967 156.6 218.12C154.228 218.218 152.189 219.803 151.052 222.112L151.052 222.112V222.112Z" fill="#FFB6B6"/>
<path d="M135.322 229.61L128.257 233.874L115.632 236.895L98.5173 245.464L95.9216 246.759L83.9435 243.984L75.6498 242.051L72.9164 241.418L62.9674 239.105L60.989 238.954C60.4475 238.765 59.8629 238.586 59.2213 238.425C57.3104 237.934 55.0215 237.562 52.6756 237.418C51.9693 237.375 51.2534 237.352 50.5433 237.358C44.4734 237.377 38.6513 239.126 38.5083 244.407C38.3967 248.725 39.1027 252.852 40.462 256.573C40.6689 257.138 40.8855 257.685 41.1201 258.229C43.9967 264.905 49.0467 270.031 55.19 272.116C56.5297 272.568 57.9171 272.869 59.3454 273.024L59.6419 272.989L60.7523 272.869L62.5753 272.672L65.9205 272.304L92.1845 269.428L95.3238 269.086L98.2349 268.763L98.3015 268.725C102.018 266.78 112.279 261.413 122.635 255.858C132.128 250.761 136.133 250.134 138.958 248.784C139.519 248.517 140.031 248.229 140.534 247.866C140.984 247.53 149.224 240.674 149.269 240.536C149.419 240.112 149.254 239.213 148.88 238.03C147.82 234.62 145.097 228.955 143.723 226.173L143.097 224.922L135.322 229.61H135.322L135.322 229.61Z" fill="#E97558"/>
<path d="M18.423 151.454C8.24828 151.454 0 161.514 0 173.922V419.114C0 423.847 1.20979 428.253 3.27216 431.878C5.15584 435.205 7.7622 437.878 10.807 439.561H10.8314C13.1535 440.859 15.7111 441.581 18.423 441.581H157.209V428.036H19.235C16.653 439.601 14.9398 439.264 13.3403 438.641C11.4241 437.908 9.65404 436.759 8.11133 435.274C8.09507 435.274 8.09507 435.264 8.09507 435.254C6.03275 433.313 4.37639 430.808 3.24778 427.907C2.20847 425.243 1.62389 422.263 1.62389 419.114V257.076C1.62389 199.837 39.6728 153.435 86.6085 153.435H246.523V151.454H18.423V151.454V151.454Z" fill="#3F3D56"/>
<path d="M89.2248 190.41C89.2167 192.529 89.2086 196.698 87.7065 197.747L87.3168 197.519C87.0569 197.321 86.7322 197.014 86.383 196.668C85.3113 195.598 83.9472 194.123 83.0135 193.925C82.9648 192.143 83.0054 190.36 83.1515 188.588C83.1921 188.162 83.2327 187.736 83.2814 187.311C83.1434 187.598 83.0135 187.885 82.8835 188.182C82.1122 189.944 81.4789 191.806 81.0161 193.717C79.4734 193.737 77.411 193.48 76.5748 195.054C75.3649 197.341 77.0944 202.213 74.147 204.322C73.5218 204.768 72.6855 205.094 71.5731 205.243C72.7423 205.471 74.2282 206.164 74.9752 207.986C76.5179 211.749 77.8333 216.105 77.135 220.116C77.0294 220.71 76.8832 221.294 76.6884 221.868C75.503 225.354 72.7586 227.592 70.7449 230.463C70.7043 230.513 70.6719 230.562 70.6394 230.612C69.0886 232.869 68.5689 234.721 68.7313 236.474C69.0236 239.692 71.5975 242.563 74.2525 246.881C75.235 248.485 72.3039 256.812 73.1402 258.535C73.9927 260.258 74.4474 262.437 73.7735 264.278C73.0509 266.239 71.427 267.11 69.6245 267.447C64.4767 263.14 60.0516 257.654 58.0623 251.188C56.341 245.603 56.4304 239.306 59.4345 232.394C56.5521 238.474 55.4641 245.782 56.406 252.713C56.4304 252.96 56.4628 253.198 56.5034 253.436C56.6496 254.367 56.8931 255.208 57.2179 256C58.6713 259.535 61.6918 261.872 63.9165 265.13C62.9827 266.279 61.4563 268.031 59.9704 269.645C58.7038 271.031 57.4534 272.299 56.6333 273.002C56.0812 272.378 55.5047 270.843 54.9607 268.843C54.7415 268.041 54.5223 267.16 54.3193 266.239C53.0445 260.664 52.0052 253.475 51.7373 251.267C50.9984 252.96 50.7873 257.743 50.8929 262.664C50.9091 263.387 50.9335 264.11 50.9578 264.823C51.1933 271.022 44.9007 274.071 41.588 269.368C40.9059 268.388 40.2076 267.289 39.4931 266.051C39.4038 261.318 39.9559 256.565 41.1739 252.079C41.2064 251.95 41.2226 251.891 41.2226 251.871C41.0602 252.158 39.3551 257.327 38.0154 261.308C37.3252 263.348 36.7325 265.071 36.4808 265.675C36.7326 263.843 37.2116 261.585 37.715 259.377C38.8598 254.416 40.1508 249.752 39.347 251.039C38.5269 252.356 37.7881 253.762 37.1547 255.228C35.8881 258.109 35.0031 261.248 34.5565 264.476C34.5159 264.764 34.4753 265.051 34.451 265.348C33.7121 265.12 32.9976 264.803 32.3156 264.387C30.1639 263.031 29.0028 260.189 28.881 257.228C28.6862 252.594 30.3669 248.396 33.8258 249.049C35.1411 249.297 35.6933 248.346 35.7663 246.792C35.9449 243.573 34.1181 237.751 33.0544 234.622C32.5997 233.285 32.1288 231.899 31.7228 230.503C33.9719 227.007 35.1655 222.492 34.9057 218.056C34.1343 221.363 32.7621 224.453 30.919 227.057C30.5212 224.72 30.4887 222.383 31.1951 220.155C33.5578 212.749 38.6 215.888 42.1645 209.233C46.3298 201.46 45.1037 197.401 47.5233 188.588C48.5626 184.786 51.0228 181.597 54.0757 180.092C57.1287 178.597 61.4807 169.081 73.0184 179.528C73.2052 179.32 73.3919 179.122 73.5868 178.943C76.8589 175.933 80.8862 177.854 85.1976 178.537C89.7608 179.26 88.2505 178.201 90.7107 182.944C91.6363 184.736 89.2411 188.291 89.2248 190.41V190.41L89.2248 190.41Z" fill="#2F2E41"/>
<path d="M188.079 121.323C188.079 121.317 188.076 121.313 188.071 121.313C187.17 120.105 185.968 119.234 184.612 118.867H184.604C184.133 118.739 183.654 118.669 183.151 118.669H141.344C137.649 118.669 134.637 122.343 134.637 126.848V177.834C134.637 182.339 137.649 186.003 141.344 186.003H183.151C186.845 186.003 189.849 182.339 189.849 177.834V126.848C189.849 124.72 189.183 122.779 188.079 121.323V121.323ZM189.062 177.834C189.062 181.814 186.415 185.042 183.151 185.042H141.344C138.08 185.042 135.433 181.814 135.433 177.834V152.128C135.433 151.9 135.433 151.683 135.441 151.455C135.465 150.009 135.563 148.583 135.741 147.177C135.766 146.939 135.806 146.712 135.839 146.474C136.724 140.305 139.038 134.721 142.35 130.284L142.391 130.235C147.263 123.719 154.278 119.63 162.073 119.63H183.151C186.415 119.63 189.062 122.868 189.062 126.848V177.834V177.834Z" fill="#E6E6E6"/>
<path d="M135.379 152.34C135.379 134.245 148.671 118.415 163.33 115.613C181.886 112.066 198.945 124.087 196.491 144.526C194.34 162.431 169.14 196.321 162.247 180.297C154.359 161.96 135.379 170.436 135.379 152.34H135.379H135.379Z" fill="#E97558"/>
<path d="M170.176 137.988H156.681C156.34 137.988 156.064 138.325 156.064 138.741C156.064 139.156 156.34 139.493 156.681 139.493H170.176C170.517 139.493 170.793 139.156 170.793 138.741C170.793 138.325 170.517 137.988 170.176 137.988Z" fill="white"/>
<path d="M170.176 154.04H156.681C156.34 154.04 156.064 154.376 156.064 154.782C156.064 155.198 156.34 155.545 156.681 155.545H170.176C170.517 155.545 170.793 155.198 170.793 154.782C170.793 154.376 170.517 154.04 170.176 154.04Z" fill="white"/>
<path d="M177.418 146.019H149.439C149.098 146.019 148.822 146.356 148.822 146.772C148.822 147.188 149.098 147.524 149.439 147.524H177.418C177.759 147.524 178.035 147.188 178.035 146.772C178.035 146.356 177.759 146.019 177.418 146.019Z" fill="white"/>
<path d="M41.3131 42.6904C40.4175 42.6904 39.6892 43.5786 39.6892 44.6708V75.3668C39.6892 76.459 40.4175 77.3472 41.3131 77.3472C42.2087 77.3472 42.937 76.459 42.937 75.3668V44.6708C42.937 43.5786 42.2087 42.6904 41.3131 42.6904Z" fill="#3F3D56"/>
<path d="M57.228 72.2669C62.8169 72.2669 67.3475 66.8581 67.3475 60.1859C67.3475 53.5137 62.8169 48.1049 57.228 48.1049C51.6392 48.1049 47.1086 53.5137 47.1086 60.1859C47.1086 66.8581 51.6392 72.2669 57.228 72.2669Z" fill="#E97558"/>
<path d="M138.352 56.0538H83.8825C82.0139 56.0538 80.4935 54.1997 80.4935 51.9208C80.4935 49.642 82.0139 47.7878 83.8825 47.7878H138.352C140.22 47.7878 141.741 49.642 141.741 51.9208C141.741 54.1997 140.22 56.0538 138.352 56.0538V56.0538Z" fill="#F2F2F2"/>
<path d="M180.86 70.0411H83.8825C82.0139 70.0411 80.4935 68.187 80.4935 65.9081C80.4935 63.6293 82.0139 61.7751 83.8825 61.7751H180.86C182.729 61.7751 184.249 63.6293 184.249 65.9081C184.249 68.187 182.729 70.0411 180.86 70.0411Z" fill="#F2F2F2"/>
<path d="M175.867 415.343C174.971 415.343 174.243 416.231 174.243 417.324V448.02C174.243 449.112 174.971 450 175.867 450C176.762 450 177.491 449.112 177.491 448.02V417.324C177.491 416.231 176.762 415.343 175.867 415.343Z" fill="#3F3D56"/>
<path d="M191.782 444.922C197.371 444.922 201.901 439.513 201.901 432.841C201.901 426.169 197.371 420.76 191.782 420.76C186.193 420.76 181.662 426.169 181.662 432.841C181.662 439.513 186.193 444.922 191.782 444.922Z" fill="#E97558"/>
<path d="M272.906 428.707H218.436C216.568 428.707 215.047 426.853 215.047 424.574C215.047 422.295 216.568 420.441 218.436 420.441H272.906C274.774 420.441 276.295 422.295 276.295 424.574C276.295 426.853 274.774 428.707 272.906 428.707Z" fill="#F2F2F2"/>
<path d="M315.414 442.696H218.436C216.568 442.696 215.047 440.842 215.047 438.563C215.047 436.284 216.568 434.43 218.436 434.43H315.414C317.282 434.43 318.803 436.284 318.803 438.563C318.803 440.842 317.282 442.696 315.414 442.696Z" fill="#F2F2F2"/>
<path d="M81.9982 170.36C83.8942 170.36 85.4313 168.444 85.4313 166.08C85.4313 163.716 83.8942 161.8 81.9982 161.8C80.1021 161.8 78.565 163.716 78.565 166.08C78.565 168.444 80.1021 170.36 81.9982 170.36Z" fill="#3F3D56"/>
<path d="M93.8583 170.36C95.7543 170.36 97.2914 168.444 97.2914 166.08C97.2914 163.716 95.7543 161.8 93.8583 161.8C91.9622 161.8 90.4251 163.716 90.4251 166.08C90.4251 168.444 91.9622 170.36 93.8583 170.36Z" fill="#3F3D56"/>
<path d="M105.718 170.36C107.614 170.36 109.151 168.444 109.151 166.08C109.151 163.716 107.614 161.8 105.718 161.8C103.822 161.8 102.285 163.716 102.285 166.08C102.285 168.444 103.822 170.36 105.718 170.36Z" fill="#3F3D56"/>
<path d="M320.215 85.9071C322.111 85.9071 323.648 83.9908 323.648 81.627C323.648 79.2631 322.111 77.3468 320.215 77.3468C318.319 77.3468 316.782 79.2631 316.782 81.627C316.782 83.9908 318.319 85.9071 320.215 85.9071Z" fill="#3F3D56"/>
<path d="M332.075 85.9071C333.971 85.9071 335.508 83.9908 335.508 81.627C335.508 79.2631 333.971 77.3468 332.075 77.3468C330.179 77.3468 328.642 79.2631 328.642 81.627C328.642 83.9908 330.179 85.9071 332.075 85.9071Z" fill="#3F3D56"/>
<path d="M343.935 85.9071C345.831 85.9071 347.368 83.9908 347.368 81.627C347.368 79.2631 345.831 77.3468 343.935 77.3468C342.039 77.3468 340.502 79.2631 340.502 81.627C340.502 83.9908 342.039 85.9071 343.935 85.9071Z" fill="#3F3D56"/>
</svg>